<svg width="56" height="63" viewBox="0 0 56 63" fill="none" xmlns="http://www.w3.org/2000/svg">
<path fillRule="evenodd" clipRule="evenodd" d="M55.9908 40.6994C54.7185 39.0455 54.5913 34.5927 48.6119 32.5571C45.3041 31.4121 23.1674 32.1755 17.6969 32.0482C11.463 31.7938 11.9719 27.5955 11.7174 21.9977C7.51909 22.1249 3.82965 21.4888 1.41243 24.5421C-0.623129 27.341 0.140204 32.4299 0.140204 36.3738C0.140204 45.0249 0.140204 53.8032 0.0129819 62.5816C2.04854 62.836 7.90076 62.836 9.80909 62.7088C11.3358 62.4544 11.8446 61.691 12.7352 60.8005C13.753 59.9099 14.3891 59.2738 15.2796 58.3832C20.4958 53.4216 18.8419 52.531 28.638 52.531C33.0908 52.531 44.1591 53.0399 47.8485 52.2766C53.5735 51.0044 55.9908 46.4244 55.9908 40.6994Z" fill="#725BFD"/>
<path fillRule="evenodd" clipRule="evenodd" d="M11.7174 21.9977C20.3685 22.2522 29.2741 21.9977 37.9252 21.9977C44.5408 21.9977 49.3752 23.1427 53.5735 18.181C54.7185 17.036 55.1002 14.8733 55.9908 13.7283C56.3724 -2.93785 43.6502 0.242709 29.6558 0.242709C24.058 0.242709 14.898 -1.15674 12.608 3.0416C10.8269 5.96771 11.9719 17.6722 11.7174 21.9977Z" fill="#4EE5D8"/>
<path fillRule="evenodd" clipRule="evenodd" d="M11.7174 21.9977C11.9719 27.5955 11.463 31.7938 17.6969 32.0482C23.1674 32.1755 45.3041 31.4121 48.6119 32.5571C54.5913 34.5927 54.7185 39.0455 55.9907 40.6993V13.7282C55.1002 14.8732 54.7185 17.036 53.5735 18.181C49.3752 23.1427 44.5407 21.9977 37.9252 21.9977C29.2741 21.9977 20.3685 22.2521 11.7174 21.9977Z" fill="#45A2FF"/>
</svg>
